<svg viewBox="0 0 200 200" xmlns="http://www.w3.org/2000/svg">
  <!-- Gradient definitions -->
  <defs>
    <linearGradient id="primaryBlue" x1="0%" y1="0%" x2="100%" y2="100%">
      <stop offset="0%" style="stop-color:#3b82f6"/>
      <stop offset="100%" style="stop-color:#1d4ed8"/>
    </linearGradient>
    <linearGradient id="accentBlue" x1="0%" y1="0%" x2="100%" y2="100%">
      <stop offset="0%" style="stop-color:#60a5fa"/>
      <stop offset="100%" style="stop-color:#2563eb"/>
    </linearGradient>
    <filter id="shadow" x="-20%" y="-20%" width="140%" height="140%">
      <feDropShadow dx="2" dy="4" stdDeviation="3" flood-color="#1e40af" flood-opacity="0.3"/>
    </filter>
  </defs>
  
  <!-- Main container -->
  <rect x="30" y="30" width="140" height="140" rx="20" fill="url(#primaryBlue)" filter="url(#shadow)"/>
  
  <!-- List stack visual effect -->
  <rect x="35" y="25" width="130" height="130" rx="18" fill="#2563eb" opacity="0.6"/>
  <rect x="40" y="20" width="120" height="120" rx="16" fill="#1e40af" opacity="0.4"/>
  
  <!-- Main content area -->
  <rect x="50" y="50" width="100" height="100" rx="8" fill="white"/>
  
  <!-- Expandable section 1 (open) -->
  <rect x="55" y="55" width="90" height="16" rx="3" fill="url(#accentBlue)"/>
  <!-- Down arrow for expanded -->
  <polygon points="62,61.5 65,64.5 68,61.5" fill="white"/>
  
  <!-- List items under section 1 -->
  <g stroke="#3b82f6" stroke-width="1.5" fill="none" stroke-linecap="round" stroke-linejoin="round">
    <polyline points="59,76 61,78 66,73"/>
  </g>
  <rect x="68" y="74" width="50" height="3" rx="1.5" fill="#94a3b8"/>
  <!-- Open/external link icon -->
  <g stroke="#60a5fa" stroke-width="0.8" fill="none" stroke-linecap="round" stroke-linejoin="round">
    <rect x="122" y="73" width="6" height="6" rx="1"/>
  </g>
  <g stroke="#2563eb" stroke-width="0.9" fill="none" stroke-linecap="round" stroke-linejoin="round">
    <line x1="125" y1="73" x2="128" y2="73"/>
    <line x1="128" y1="73" x2="128" y2="76"/>
    <line x1="125" y1="76" x2="128" y2="73"/>
  </g>
  
  <g stroke="#3b82f6" stroke-width="1.5" fill="none" stroke-linecap="round" stroke-linejoin="round">
    <polyline points="59,84 61,86 66,81"/>
  </g>
  <rect x="68" y="82" width="40" height="3" rx="1.5" fill="#94a3b8"/>
  
  <!-- Collapsed section 2 -->
  <rect x="55" y="95" width="90" height="16" rx="3" fill="#64748b"/>
  <!-- Right arrow for collapsed -->
  <polygon points="62,99.5 65,102.5 62,105.5" fill="white"/>
  
  <!-- Collapsed section 3 -->
  <rect x="55" y="115" width="90" height="16" rx="3" fill="#64748b"/>
  <!-- Right arrow for collapsed -->
  <polygon points="62,119.5 65,122.5 62,125.5" fill="white"/>
  
  <!-- Modern geometric accent -->
  <circle cx="155" cy="45" r="8" fill="#60a5fa" opacity="0.8"/>
  <circle cx="45" cy="155" r="6" fill="#93c5fd" opacity="0.9"/>
  

</svg>